<svg xmlns="http://www.w3.org/2000/svg" width="101" height="99.99" fill="none" class="Icon-root" viewBox="0 0 101 100"><path fill="#77BC1F" d="M100.467 0H.468v100h99.999V0Z"/><path fill="#000" d="M49.844 35.125a8.338 8.338 0 0 1 5.67 2.523 8.667 8.667 0 0 1 2.466 6.08c0 2.386-.932 4.533-2.466 6.079a8.365 8.365 0 0 1-3.398 2.102l9.614 12.977H44.083L35.526 52.33h-4.898v12.556H13.855v-29.76h35.989ZM36.605 48.693a4.812 4.812 0 0 0 3.193-1.454 5.014 5.014 0 0 0 1.432-3.512 5.015 5.015 0 0 0-1.432-3.511 4.865 4.865 0 0 0-3.193-1.455h-5.977v9.932h5.977Z"/><path fill="#000" d="M56.332 35.125v3.636H70.39v26.125h16.75V38.762h13.318l.011-3.648-44.136.011Z"/></svg>