<svg xmlns="http://www.w3.org/2000/svg" width="15.215" height="17" class="Icon-root" viewBox="0 0 156.35 176.03"><g fill="#6E6E6E"><path d="M78.26 64.52c-15.7 0-20 8.28-20 13.58s3.22 17.9 20 17.9 19.93-12.62 19.93-18.47c0-4.68-4.19-13.01-19.93-13.01Z"/><path d="M135.69 74.51s.23-5.42.22-6a68.33 68.33 0 0 0-.66-9.24s0-.08 0-.11C131.11 30.61 108.77 14.61 81 1.11 80.3.77 78.62.16 78.18 0c-.45.16-2.13.77-2.82 1.11-27.77 13.5-50.12 29.5-54.24 58.09v.11a70 70 0 0 0-.66 9.24c0 .54.23 6 .23 6C-15.6 113.31 6.9 176 6.9 176c12.19-6.4 22.3-11.28 35.86-14.4-3.29-7.6-5.26-17.31-5.26-27.89 0-14.54 1.94-24.5 5.17-31.25.26-.67.5-1.34.78-2a102.39 102.39 0 0 1 6.43-10.66s-.42-3.32-.62-7.58v-.31c0-2.49-.12-5 0-7.51a34.62 34.62 0 0 1 .52-4.4c.11-.54.22-1.07.36-1.59 0-.13.07-.27.11-.39 3.34-11.72 14.58-19.48 27.93-19.51s24.58 7.8 27.92 19.49c0 .12.07.26.11.39.14.52.25 1 .36 1.59a34.62 34.62 0 0 1 .52 4.41c.13 2.49 0 5 0 7.51v.31c-.2 4.26-.62 7.58-.62 7.58a102.39 102.39 0 0 1 6.43 10.66c.28.67.52 1.34.78 2 3.23 6.75 5.17 16.71 5.17 31.25 0 10.58-2 20.29-5.25 27.89 13.55 3.12 23.66 8 35.85 14.4 0 .01 22.55-62.68-13.76-101.48Z"/></g></svg>