<svg xmlns="http://www.w3.org/2000/svg" width="48" height="15" fill="none" class="Icon-root"><path fill="#6E6E6E" d="M43.533 0 39.25 11.554h-2.758l-2.76-7.312h2.552l1.587 4.967L41.023 0H29.647L26.39 3.258v11.028h15.425L47.08 0h-3.548Zm-9.249 11.562a6.174 6.174 0 0 1-.841.055 5.171 5.171 0 0 1-.842.063h-.938c-.626 0-1.127-.188-1.503-.565-.378-.376-.566-.876-.566-1.5V6.107h-.828V4.243h.828l.276-1.648h2.138v1.648h1.724v1.863h-1.724v3.173c0 .138.046.253.138.345a.467.467 0 0 0 .344.138h1.794v1.8ZM5.276 4.26h2.541v7.279H5.414V7.556l-2.335 3.983H.538v-7.28H2.94v3.983L5.276 4.26ZM13.93 6.938V4.259h2.403v7.28h-2.404V8.792h-2.472v2.747H9.053v-7.28h2.404v2.679h2.472ZM24.755 9.48c0 .686-.195 1.224-.584 1.613-.389.39-.927.584-1.614.584h-3.159c-.686 0-1.224-.195-1.613-.584-.39-.389-.584-.927-.584-1.614V6.32c0-.687.194-1.224.584-1.614.389-.389.927-.584 1.613-.584h3.16c.686 0 1.224.195 1.613.584.39.39.584.927.584 1.614v3.16Zm-2.404-2.954c0-.366-.183-.55-.549-.55h-1.648c-.367 0-.55.184-.55.55v2.747c0 .366.183.55.55.55h1.648c.366 0 .55-.184.55-.55V6.526Z"/></svg>