<svg xmlns="http://www.w3.org/2000/svg" width="32" height="32" fill="none" class="Icon-root" viewBox="0 0 18 18"><rect width="17.547" height="17.5" x=".12" y=".5" fill="#77BC1F" rx="5"/><path fill="#000" d="M8.814 6.582c.389.014.74.181.995.442.267.272.433.648.433 1.063a1.499 1.499 0 0 1-1.03 1.432L10.9 11.79H7.803L6.302 9.593h-.86v2.197H2.5V6.582h6.315ZM6.491 8.957a.845.845 0 0 0 .56-.255.876.876 0 0 0 0-1.229.855.855 0 0 0-.56-.255H5.442v1.739h1.049Z"/><path fill="#000" d="M9.953 6.582v.636h2.466v4.572h2.94V7.218h2.336l.002-.638-7.744.002Z"/></svg>