<svg xmlns="http://www.w3.org/2000/svg" width="21" height="17" fill="none" class="Icon-root"><path fill="#6E6E6E" d="M13.558 0 .827 1.91v12.974l12.73 1.91V0Z"/><path fill="#000" d="M6.29 6.238a.968.968 0 0 1 .717.345c.196.223.318.536.318.884 0 .35-.12.664-.318.889-.12.137-.266.241-.431.3l1.24 1.941-2.234-.117-1.016-1.798-.563-.01v1.725l-1.837-.096V6.366l4.125-.128Zm-1.597 1.94a.533.533 0 0 0 .376-.202.776.776 0 0 0 .171-.495.764.764 0 0 0-.17-.491.526.526 0 0 0-.377-.196l-.69.014v1.365l.69.005Z"/><path fill="#000" d="M7.125 6.207v.544l1.894-.047v3.956l2.446.133V6.646l2.131-.05v-.595l-6.471.206Z"/><path fill="#6E6E6E" d="m13.555 16.794 6.771-2.548v-11.7L13.555 0v16.794Z"/><path fill="#FCFCFC" d="M18.35 11.418v-1.43l-2.1.212.003 1.6-1.485.27V9.61l.466-.029c.383-.375.694-.816.694-2.782V4.722l3.344.598-.002 4.015.246-.016-.007 1.887-1.16.212Zm-.278-5.714-.813-.118v1.45c0 1.299-.126 2.037-.306 2.44l1.119-.068V5.704Z"/></svg>