<svg xmlns="http://www.w3.org/2000/svg" width="14" height="14" fill="none" class="Icon-root Icon-rumble"><path fill="#6E6E6E" fill-rule="evenodd" d="M11.043.861c-.413-.16-.884-.269-1.574-.3C7.698.48 5.899.48 4.128.56c-.69.031-1.16.14-1.573.3a3.173 3.173 0 0 0-1.147.748A3.18 3.18 0 0 0 .66 2.756c-.16.412-.27.883-.301 1.572a59.54 59.54 0 0 0 0 5.343c.032.69.14 1.16.3 1.572.166.426.388.788.748 1.148.36.36.722.582 1.148.747.412.16.883.27 1.572.301 1.775.081 3.568.081 5.343 0 .69-.031 1.161-.14 1.573-.3a3.169 3.169 0 0 0 1.147-.748c.36-.36.582-.722.748-1.148.16-.412.269-.883.301-1.572.08-1.776.08-3.567 0-5.342-.032-.69-.142-1.16-.301-1.573a3.18 3.18 0 0 0-.748-1.147c-.36-.36-.72-.582-1.147-.748Zm-2.244 2.75v2h-.5a1.5 1.5 0 0 0-1.5 1.5v3.277h-2V7.112a3.5 3.5 0 0 1 3.5-3.5h.5Z" clip-rule="evenodd"/></svg>