<svg xmlns="http://www.w3.org/2000/svg" width="43" height="9" fill="none" class="Icon-root"><path fill="#6E6E6E" d="M6.857 2.751A2.729 2.729 0 0 0 4.124.017H.326V8.53h1.416V1.228h2.177c.84 0 1.523.683 1.523 1.523 0 .84-.684 1.523-1.523 1.523h-1.24l2.48 4.256H6.71L4.875 5.387A2.75 2.75 0 0 0 6.857 2.75ZM8.123.01v5.526c0 1.679 1.503 3.036 3.368 3.036s3.368-1.357 3.368-3.036V.01h-1.415v5.526c0 .976-.87 1.757-1.953 1.757-1.074 0-1.952-.791-1.952-1.757V.01H8.123ZM19.741 4.569h-.986v1.21h1.191a2.89 2.89 0 1 0 0-5.779h-3.495v8.513h1.416V1.22h1.874c.928 0 1.67.752 1.67 1.67a1.67 1.67 0 0 1-1.67 1.679ZM27.393 8.513V1.221h2.48V.01h-6.385v1.21h2.48v7.293h1.425ZM31.241.01v8.503h5.672v-1.21h-4.256V.01H31.24ZM38.456 2.744 36.865.01h-1.601l2.392 4.1.8-1.367ZM38.28 4.872v3.641h1.415V5.174L42.712.01H41.11l-2.83 4.862Z"/></svg>